<?xml version="1.0" standalone="no"?>
<!DOCTYPE svg PUBLIC "-//W3C//DTD SVG 20010904//EN"
 "http://www.w3.org/TR/2001/REC-SVG-20010904/DTD/svg10.dtd">
<svg version="1.0" xmlns="http://www.w3.org/2000/svg"
 width="512.000000pt" height="512.000000pt" viewBox="0 0 512.000000 512.000000"
 preserveAspectRatio="xMidYMid meet">

<g transform="translate(0.000000,512.000000) scale(0.100000,-0.100000)"
fill="#000000" stroke="none">
<path d="M1200 3834 c-14 -9 -31 -24 -37 -32 -19 -23 -19 -2471 0 -2494 6 -8
23 -22 37 -32 22 -15 136 -16 1353 -16 964 0 1334 3 1350 11 49 26 67 51 67
96 0 52 -12 78 -43 95 -17 10 -290 14 -1297 18 l-1275 5 -3 1151 -2 1150 -28
28 c-37 34 -88 43 -122 20z"/>
<path d="M3004 3542 c-52 -42 -58 -106 -15 -154 l29 -33 297 -5 297 -5 -280
-280 c-154 -154 -296 -296 -316 -315 l-36 -34 -118 115 c-64 64 -128 124 -142
133 -33 22 -76 20 -110 -4 -16 -11 -247 -239 -514 -506 l-486 -486 0 -50 c0
-41 5 -54 29 -79 23 -23 38 -29 72 -29 l43 0 457 456 457 456 130 -130 c77
-76 141 -132 154 -134 60 -9 72 1 439 363 200 197 367 359 371 359 5 0 8 -130
8 -289 l0 -289 35 -31 c43 -37 79 -40 126 -8 l34 23 3 449 c1 248 0 459 -2
470 -3 11 -18 28 -35 38 -26 15 -69 17 -468 17 -400 0 -440 -2 -459 -18z"/>
</g>
</svg>
