<?xml version="1.0" standalone="no"?>
<!DOCTYPE svg PUBLIC "-//W3C//DTD SVG 20010904//EN"
 "http://www.w3.org/TR/2001/REC-SVG-20010904/DTD/svg10.dtd">
<svg version="1.0" xmlns="http://www.w3.org/2000/svg"
 width="214.000000pt" height="79.000000pt" viewBox="0 0 214.000000 79.000000"
 preserveAspectRatio="xMidYMid meet">

<g transform="translate(0.000000,79.000000) scale(0.100000,-0.100000)"
fill="#000000" stroke="none">
<path d="M0 650 l0 -140 29 0 c17 0 33 -5 36 -10 5 -7 11 -8 19 -1 21 18 77
10 85 -12 8 -20 8 -20 13 1 7 25 28 30 28 7 0 -8 5 -15 10 -15 6 0 10 6 10 13
0 9 14 14 40 15 25 1 40 -3 40 -10 0 -9 3 -9 12 0 7 7 21 12 32 12 18 0 18 -1
3 -18 -10 -10 -17 -26 -17 -35 0 -9 -4 -17 -10 -17 -5 0 -10 7 -10 15 0 9 -10
15 -26 15 -15 0 -23 -4 -19 -11 4 -6 13 -8 21 -5 8 3 14 1 14 -4 0 -6 -11 -10
-25 -10 -17 0 -29 7 -35 23 -6 16 -9 17 -9 5 -1 -26 -21 -32 -36 -12 -13 18
-14 18 -15 2 0 -22 -30 -24 -30 -3 0 8 -4 15 -10 15 -5 0 -10 -7 -10 -15 0
-10 -10 -15 -30 -15 -17 0 -30 5 -30 12 0 9 -3 9 -12 0 -7 -7 -20 -12 -30 -12
-10 0 -18 -7 -18 -15 0 -8 -4 -15 -10 -15 -6 0 -10 -75 -10 -205 l0 -205 1070
0 1070 0 0 395 0 395 -585 0 -584 0 -3 -87 c-2 -50 -7 -88 -13 -88 -6 0 -11
38 -13 88 l-3 87 -113 0 c-111 0 -114 -1 -109 -21 5 -17 2 -20 -13 -17 -11 2
-18 11 -18 21 2 15 -8 17 -71 17 -69 0 -73 -1 -68 -21 5 -17 2 -20 -13 -17
-11 2 -18 11 -18 21 2 16 -19 17 -257 17 l-259 0 0 -140z m42 98 c3 -29 7 -33
36 -36 31 -3 32 -2 32 32 0 29 4 36 20 36 18 0 20 -7 20 -80 0 -73 -2 -80 -20
-80 -16 0 -20 7 -20 36 0 34 -1 35 -32 32 -29 -3 -34 -7 -38 -36 -10 -63 -25
-38 -28 46 -2 67 0 82 12 82 9 0 16 -12 18 -32z m240 7 c9 -19 8 -29 -5 -48
-14 -22 -14 -27 4 -56 19 -31 19 -31 -2 -31 -12 0 -27 12 -37 30 -21 38 -32
38 -32 2 0 -34 -7 -43 -26 -35 -10 4 -14 26 -14 84 l0 79 50 0 c44 0 52 -3 62
-25z m197 -1 c24 -30 26 -61 9 -98 -12 -28 -28 -36 -87 -40 l-41 -3 0 83 0 84
49 0 c42 0 53 -4 70 -26z m301 1 c0 -8 7 -15 15 -15 8 0 15 -7 15 -15 0 -8 -7
-15 -15 -15 -10 0 -15 -11 -15 -35 0 -24 5 -35 15 -35 20 0 19 -16 -1 -24 -26
-10 -44 13 -44 54 0 21 -5 40 -10 42 -14 4 11 58 28 58 6 0 12 -7 12 -15z
m-232 -78 c2 -46 0 -57 -13 -57 -12 0 -15 13 -15 61 0 81 24 77 28 -4z m119
49 c11 -11 -24 -61 -47 -67 -23 -6 -22 -6 10 -10 30 -3 35 -8 35 -29 0 -37
-47 -58 -81 -35 -20 13 -23 21 -17 43 4 15 6 40 5 56 -2 43 15 59 56 52 19 -3
37 -7 39 -10z m51 -49 c3 -52 1 -57 -18 -57 -18 0 -20 6 -20 53 0 30 3 57 7
61 17 16 28 -5 31 -57z m186 47 c15 -14 23 -94 11 -106 -3 -2 -24 -2 -47 1
-34 5 -44 10 -46 27 -2 16 4 24 27 32 38 13 42 37 6 28 -18 -5 -25 -2 -25 8 0
27 50 34 74 10z m-394 -234 c0 -49 -1 -50 -30 -50 -20 0 -30 5 -30 15 0 9 -9
15 -25 15 -31 0 -33 -17 -2 -23 19 -4 18 -4 -5 -6 -32 -1 -51 25 -37 52 13 21
48 22 56 1 5 -15 7 -15 15 0 5 9 15 16 22 16 8 0 16 7 20 15 10 28 16 15 16
-35z m60 35 c0 -14 23 -20 57 -16 6 1 15 -9 19 -21 l7 -23 10 23 c6 12 14 22
18 22 13 0 -26 -93 -41 -98 -8 -3 -10 0 -5 7 4 7 4 24 0 39 -7 27 -7 27 -16 5
-6 -17 -16 -23 -39 -23 -29 0 -30 1 -30 50 0 28 5 50 10 50 6 0 10 -7 10 -15z
m1405 -105 c3 -11 4 -24 0 -29 -12 -21 17 -21 50 -1 39 24 55 20 55 -16 0 -17
-6 -24 -19 -24 -41 0 -54 -52 -19 -74 14 -8 23 -7 39 2 25 16 39 3 39 -34 0
-36 -23 -47 -53 -24 -14 11 -31 20 -39 20 -33 0 -51 -53 -26 -78 14 -14 -9
-25 -44 -20 -19 2 -23 9 -22 38 0 19 4 43 8 52 6 14 -1 19 -40 31 -26 8 -50
19 -52 25 -2 6 15 19 37 28 42 17 55 46 30 71 -6 6 -8 20 -4 32 9 28 51 29 60
1z m-1655 -100 c28 -16 53 -30 55 -30 3 0 5 11 5 25 0 14 5 25 11 25 6 0 9
-16 7 -37 l-3 -38 -77 -3 c-49 -2 -78 1 -78 8 0 9 34 14 78 13 19 -1 14 5 -19
23 -17 8 -28 11 -25 5 4 -6 1 -9 -6 -6 -15 6 -22 45 -8 45 5 0 32 -13 60 -30z
m136 -34 c20 -8 56 12 48 26 -4 7 -3 8 4 4 7 -4 25 1 42 10 16 10 33 14 37 10
8 -7 0 -15 -44 -43 -16 -10 -14 -12 15 -12 17 -1 32 -5 32 -11 0 -6 -33 -10
-80 -10 l-80 0 1 43 c1 28 3 33 6 15 2 -14 11 -29 19 -32z m94 50 c0 -2 -7 -7
-16 -10 -8 -3 -12 -2 -9 4 6 10 25 14 25 6z m-65 -36 c-3 -5 -12 -10 -18 -10
-7 0 -6 4 3 10 19 12 23 12 15 0z m263 -52 c3 -30 7 -38 23 -38 14 0 19 -7 19
-25 0 -19 -5 -25 -21 -25 -18 0 -20 -5 -17 -42 3 -42 4 -43 36 -42 28 2 32 -1
32 -22 0 -48 -93 -56 -125 -11 -8 12 -15 42 -15 68 0 38 -4 48 -20 52 -11 3
-20 13 -20 22 0 9 9 19 20 22 16 4 20 14 20 45 0 38 1 39 33 36 29 -3 32 -6
35 -40z m160 -5 c3 -41 14 -54 27 -33 10 16 44 11 65 -10 17 -17 20 -33 20
-101 l0 -80 -32 3 -33 3 -3 63 c-3 53 -6 63 -20 60 -13 -3 -18 -16 -20 -66
l-3 -62 -34 0 -35 0 0 128 c0 71 3 132 7 136 4 4 19 6 33 4 22 -3 25 -8 28
-45z m-510 -55 c2 -22 -1 -38 -7 -38 -6 0 -11 11 -11 24 0 13 -6 26 -12 29
-16 5 -90 -31 -84 -41 2 -4 -9 -8 -25 -9 -39 -3 -36 8 9 34 l37 22 -32 1 c-18
0 -33 5 -33 10 0 7 29 10 78 8 l77 -3 3 -37z m187 32 c5 -9 -33 -15 -82 -13
-7 1 -13 -1 -13 -3 0 -6 59 -34 67 -32 8 3 13 -5 13 -22 0 -17 -17 -12 -68 20
-27 17 -52 30 -55 30 -3 0 -8 -15 -10 -32 -3 -25 -4 -22 -5 15 l-2 47 74 0
c41 0 78 -4 81 -10z m596 -15 c54 -28 67 -113 25 -162 -20 -23 -32 -28 -71
-28 -39 0 -51 5 -71 28 -43 50 -28 133 30 161 39 20 50 20 87 1z m125 0 c5
-13 8 -13 27 0 28 19 46 19 68 -1 16 -15 20 -15 41 0 30 21 54 20 78 -4 17
-17 20 -33 20 -100 l0 -80 -35 0 -35 0 0 66 c0 57 -2 65 -17 62 -15 -3 -19
-16 -21 -66 l-3 -62 -34 0 -35 0 0 65 c0 58 -2 65 -20 65 -18 0 -20 -7 -20
-65 l0 -65 -34 0 -35 0 -3 91 c-3 84 -1 92 17 100 29 11 35 11 41 -6z m392 -8
c7 -7 15 -38 19 -68 3 -30 10 -57 16 -60 14 -10 -2 -47 -24 -54 -11 -4 -26 -2
-33 4 -10 9 -21 8 -40 0 -56 -26 -106 33 -72 86 10 14 30 27 51 31 45 8 34 28
-11 21 -31 -5 -34 -3 -34 18 0 41 92 57 128 22z m160 17 c18 -5 22 -13 20 -33
-3 -22 -7 -26 -33 -23 l-30 3 25 -21 c14 -11 31 -25 38 -30 18 -16 14 -58 -8
-80 -15 -15 -33 -20 -69 -20 -28 0 -52 4 -55 9 -12 19 7 41 34 41 43 0 44 15
5 44 -43 33 -46 66 -9 95 28 22 44 25 82 15z m-1313 -24 c3 -6 -1 -7 -9 -4
-18 7 -21 14 -7 14 6 0 13 -4 16 -10z m-205 -5 c0 -2 -10 -9 -22 -15 -22 -11
-22 -10 -4 4 21 17 26 19 26 11z"/>
<path d="M210 735 c0 -20 4 -26 18 -23 9 2 17 12 17 23 0 11 -8 21 -17 23 -14
3 -18 -3 -18 -23z"/>
<path d="M390 700 c0 -64 9 -72 51 -50 41 22 16 110 -32 110 -17 0 -19 -7 -19
-60z"/>
<path d="M600 694 c0 -9 5 -14 12 -12 18 6 21 28 4 28 -9 0 -16 -7 -16 -16z"/>
<path d="M595 610 c3 -5 12 -10 20 -10 8 0 17 5 20 10 4 6 -5 10 -20 10 -15 0
-24 -4 -20 -10z"/>
<path d="M855 650 c4 -6 11 -8 16 -5 14 9 11 15 -7 15 -8 0 -12 -5 -9 -10z"/>
<path d="M477 493 c-11 -10 -8 -43 3 -43 6 0 10 11 10 25 0 26 -2 29 -13 18z"/>
<path d="M577 493 c-11 -10 -8 -43 3 -43 15 0 24 30 13 41 -5 5 -12 6 -16 2z"/>
<path d="M1110 141 c-13 -25 3 -71 24 -71 33 0 42 62 12 82 -17 12 -25 9 -36
-11z"/>
<path d="M1617 86 c-7 -16 1 -26 20 -26 7 0 13 9 13 20 0 23 -25 27 -33 6z"/>
<path d="M27 493 c-11 -10 -8 -43 3 -43 15 0 24 30 13 41 -5 5 -12 6 -16 2z"/>
<path d="M94 487 c-6 -17 2 -37 16 -37 15 0 19 29 5 40 -12 10 -16 9 -21 -3z"/>
</g>
</svg>
