<?xml version="1.0" standalone="no"?>
<!DOCTYPE svg PUBLIC "-//W3C//DTD SVG 20010904//EN"
 "http://www.w3.org/TR/2001/REC-SVG-20010904/DTD/svg10.dtd">
<svg version="1.0" xmlns="http://www.w3.org/2000/svg"
 width="133.000000pt" height="105.000000pt" viewBox="0 0 133.000000 105.000000"
 preserveAspectRatio="xMidYMid meet">

<g transform="translate(0.000000,105.000000) scale(0.100000,-0.100000)"
fill="#000000" stroke="none">
<path d="M0 525 l0 -525 665 0 665 0 0 525 0 525 -665 0 -665 0 0 -525z m763
485 l37 -11 0 -59 0 -60 167 0 167 0 -27 -28 -27 -28 0 -178 0 -179 47 7 c51
7 115 40 152 80 14 14 28 26 33 26 5 0 8 -33 6 -72 l-3 -73 -116 -3 -117 -3
-4 -62 c-8 -125 -89 -236 -218 -301 -126 -63 -254 -72 -375 -26 -68 26 -149
100 -180 165 -23 47 -32 161 -16 205 l10 31 -34 -7 c-49 -9 -135 19 -170 56
l-30 31 -3 153 c-3 135 -6 156 -23 174 -10 12 -19 24 -19 27 0 3 40 5 90 5 50
0 90 -4 90 -8 0 -5 -9 -17 -20 -27 -18 -17 -20 -31 -20 -164 0 -165 5 -181 66
-201 47 -16 115 8 133 46 6 15 11 80 11 163 0 125 -2 140 -20 156 -30 27 -25
35 25 35 35 0 47 4 51 18 16 54 42 89 84 110 40 21 55 23 130 18 47 -2 102
-10 123 -16z"/>
<path d="M574 991 c-30 -13 -64 -59 -64 -87 0 -46 48 -82 165 -123 61 -21 118
-42 128 -46 27 -11 25 85 -3 110 -11 10 -31 37 -45 61 -14 23 -38 52 -54 63
-33 24 -97 35 -127 22z"/>
<path d="M937 842 c-13 -14 -17 -37 -17 -90 0 -67 2 -72 29 -91 16 -12 32 -21
35 -21 3 0 6 42 6 93 0 78 -3 97 -18 111 -18 15 -20 15 -35 -2z"/>
<path d="M412 838 c-8 -8 -12 -59 -12 -150 l0 -137 41 14 c51 18 128 19 183 3
61 -18 141 -100 157 -160 10 -37 16 -45 26 -36 9 7 13 44 13 128 0 103 -2 118
-17 123 -76 24 -290 110 -313 127 -15 11 -37 38 -47 59 -15 30 -23 37 -31 29z"/>
<path d="M432 524 c-110 -55 -148 -164 -101 -288 27 -74 105 -146 184 -171
163 -51 369 34 442 183 47 95 36 244 -21 291 -14 12 -16 4 -16 -71 0 -72 3
-88 20 -103 11 -10 17 -22 14 -26 -3 -5 -40 -9 -83 -9 l-78 0 -7 -32 c-15 -74
-87 -128 -171 -128 -94 0 -164 60 -173 150 -4 42 -1 52 21 74 35 35 71 33 108
-3 36 -36 37 -70 3 -110 -21 -25 -23 -34 -14 -50 35 -66 174 -12 196 75 19 74
-34 174 -115 216 -71 37 -137 38 -209 2z"/>
</g>
</svg>
