<?xml version="1.0" encoding="UTF-8"?>
<svg xmlns="http://www.w3.org/2000/svg" xmlns:xlink="http://www.w3.org/1999/xlink" width="73px" height="56px" viewBox="0 0 72 56" version="1.1">
<g id="surface1">
<path style=" stroke:none;fill-rule:nonzero;fill:rgb(100%,100%,100%);fill-opacity:1;" d="M 72 32.675781 L 72 24.9375 L 71.214844 24.9375 C 69.765625 26.875 67.890625 28.449219 65.734375 29.535156 C 63.582031 30.617188 61.207031 31.179688 58.800781 31.179688 L 58.800781 11.136719 L 61.347656 8.566406 L 61.347656 8.222656 L 42.957031 8.222656 L 42.957031 1.753906 C 39.710938 0.652344 36.316406 0.0585938 32.890625 0 C 25.890625 0 22.609375 4.015625 22.59375 8.222656 L 16.972656 8.222656 L 16.972656 8.566406 L 19.519531 11.136719 L 19.519531 25.445312 C 19.519531 27.109375 18.957031 28.386719 17.839844 29.257812 C 16.472656 30.28125 14.820312 30.839844 13.117188 30.84375 C 11.546875 30.851562 10.027344 30.285156 8.839844 29.246094 C 8.375 28.835938 8.003906 28.324219 7.761719 27.75 C 7.515625 27.179688 7.402344 26.554688 7.425781 25.933594 L 7.425781 11.136719 L 9.972656 8.566406 L 9.972656 8.222656 L 0 8.222656 L 0 8.566406 L 2.542969 11.136719 L 2.542969 25.652344 C 2.503906 26.644531 2.726562 27.632812 3.191406 28.507812 C 3.65625 29.386719 4.34375 30.121094 5.183594 30.640625 C 7.226562 31.980469 9.617188 32.6875 12.054688 32.675781 C 13.386719 32.679688 14.707031 32.429688 15.945312 31.9375 C 14.886719 33.839844 14.328125 35.988281 14.328125 38.175781 C 14.339844 40.527344 14.832031 42.851562 15.78125 45.003906 C 16.726562 47.152344 18.101562 49.082031 19.820312 50.667969 C 32.507812 62.699219 60.628906 53.371094 58.859375 32.675781 Z M 51.769531 8.941406 L 53.925781 11.121094 L 53.925781 22.304688 C 52.609375 21.101562 51.160156 20.054688 49.613281 19.179688 L 49.613281 11.128906 Z M 32.921875 1.480469 C 36.886719 1.480469 39.851562 3.8125 42.1875 8.546875 L 44.726562 11.121094 L 44.726562 16.804688 C 40.78125 15.15625 36.339844 13.785156 31.875 12.292969 C 24.277344 9.773438 26.570312 1.496094 32.921875 1.496094 Z M 22.710938 9.425781 C 23.160156 12.523438 25.355469 15.515625 29.117188 16.875 C 36.222656 19.449219 41.070312 21.113281 44.726562 22.808594 L 44.726562 35.257812 L 42.71875 37.289062 C 42.480469 33.972656 40.996094 30.875 38.570312 28.632812 C 35.84375 26.082031 32.261719 24.679688 28.546875 24.707031 C 25.90625 24.699219 23.3125 25.40625 21.03125 26.75 L 21.03125 11.136719 Z M 20.851562 49.554688 C 19.273438 48.113281 18.011719 46.355469 17.144531 44.394531 C 16.277344 42.429688 15.828125 40.308594 15.820312 38.15625 C 15.820312 31.554688 21.523438 26.1875 28.535156 26.1875 C 31.871094 26.160156 35.09375 27.421875 37.542969 29.710938 C 38.707031 30.785156 39.636719 32.085938 40.277344 33.542969 C 40.914062 34.996094 41.25 36.566406 41.253906 38.15625 C 41.253906 42.417969 37.605469 45.886719 33.0625 45.886719 C 32.070312 45.902344 31.109375 45.53125 30.375 44.851562 C 29.640625 44.175781 29.195312 43.238281 29.121094 42.234375 C 29.859375 41.957031 30.503906 41.480469 30.992188 40.855469 C 31.480469 40.234375 31.789062 39.484375 31.886719 38.699219 C 31.984375 37.910156 31.867188 37.109375 31.542969 36.382812 C 31.222656 35.65625 30.714844 35.035156 30.066406 34.582031 C 29.421875 34.128906 28.664062 33.863281 27.878906 33.816406 C 27.09375 33.765625 26.3125 33.933594 25.617188 34.300781 C 24.917969 34.671875 24.335938 35.226562 23.929688 35.90625 C 23.519531 36.585938 23.304688 37.363281 23.304688 38.15625 C 23.304688 43.3125 27.746094 47.382812 33.019531 47.382812 C 38.378906 47.382812 42.738281 43.242188 42.738281 38.15625 L 52.144531 38.15625 L 52.144531 37.8125 L 49.601562 35.242188 L 49.601562 25.671875 C 53.03125 28.261719 53.910156 30.824219 53.910156 36.390625 C 53.925781 51.132812 32.414062 60.402344 20.851562 49.570312 Z M 20.851562 49.554688 "/>
</g>
</svg>
