<?xml version="1.0" encoding="UTF-8"?>
<svg xmlns="http://www.w3.org/2000/svg" xmlns:xlink="http://www.w3.org/1999/xlink" width="135px" height="104px" viewBox="0 0 135 104" version="1.1">
<g id="surface1">
<path style=" stroke:none;fill-rule:nonzero;fill:rgb(100%,100%,100%);fill-opacity:1;" d="M 134.074219 60.683594 L 134.074219 46.3125 L 132.625 46.3125 C 129.941406 49.910156 126.476562 52.835938 122.488281 54.851562 C 118.507812 56.859375 114.117188 57.90625 109.664062 57.90625 L 109.664062 20.683594 L 114.375 15.910156 L 114.375 15.269531 L 80.367188 15.269531 L 80.367188 3.257812 C 74.363281 1.210938 68.085938 0.109375 61.75 0 C 48.804688 0 42.738281 7.457031 42.707031 15.269531 L 32.3125 15.269531 L 32.3125 15.910156 L 37.023438 20.683594 L 37.023438 47.253906 C 37.023438 50.347656 35.980469 52.71875 33.917969 54.335938 C 31.386719 56.238281 28.332031 57.273438 25.183594 57.28125 C 22.277344 57.296875 19.46875 56.242188 17.273438 54.3125 C 16.414062 53.550781 15.726562 52.601562 15.277344 51.535156 C 14.824219 50.476562 14.613281 49.316406 14.65625 48.164062 L 14.65625 20.683594 L 19.367188 15.910156 L 19.367188 15.269531 L 0.925781 15.269531 L 0.925781 15.910156 L 5.628906 20.683594 L 5.628906 47.640625 C 5.554688 49.484375 5.96875 51.316406 6.828125 52.941406 C 7.6875 54.574219 8.957031 55.9375 10.511719 56.902344 C 14.289062 59.390625 18.710938 60.707031 23.21875 60.683594 C 25.679688 60.691406 28.121094 60.226562 30.414062 59.3125 C 28.453125 62.84375 27.421875 66.835938 27.421875 70.898438 C 27.445312 75.265625 28.355469 79.582031 30.109375 83.578125 C 31.855469 87.570312 34.398438 91.152344 37.578125 94.097656 C 61.042969 116.441406 113.046875 99.117188 109.773438 60.683594 Z M 96.664062 16.605469 L 100.652344 20.652344 L 100.652344 41.421875 C 98.214844 39.1875 95.535156 37.246094 92.675781 35.621094 L 92.675781 20.667969 Z M 61.808594 2.75 C 69.140625 2.75 74.621094 7.082031 78.941406 15.871094 L 83.636719 20.652344 L 83.636719 31.207031 C 76.34375 28.148438 68.128906 25.601562 59.871094 22.828125 C 45.820312 18.152344 50.0625 2.777344 61.808594 2.777344 Z M 42.925781 17.503906 C 43.753906 23.257812 47.816406 28.816406 54.773438 31.339844 C 67.910156 36.121094 76.875 39.210938 83.636719 42.359375 L 83.636719 65.480469 L 79.925781 69.25 C 79.484375 63.09375 76.738281 57.339844 72.253906 53.175781 C 67.210938 48.4375 60.585938 45.832031 53.71875 45.882812 C 48.832031 45.871094 44.035156 47.183594 39.816406 49.679688 L 39.816406 20.683594 Z M 39.484375 92.03125 C 36.566406 89.351562 34.234375 86.089844 32.628906 82.445312 C 31.027344 78.796875 30.195312 74.859375 30.179688 70.863281 C 30.179688 58.601562 40.726562 48.632812 53.695312 48.632812 C 59.863281 48.582031 65.824219 50.925781 70.351562 55.175781 C 72.507812 57.171875 74.226562 59.589844 75.410156 62.292969 C 76.585938 64.992188 77.207031 67.910156 77.214844 70.863281 C 77.214844 78.777344 70.46875 85.21875 62.066406 85.21875 C 60.234375 85.246094 58.457031 84.558594 57.097656 83.296875 C 55.738281 82.039062 54.914062 80.300781 54.777344 78.433594 C 56.144531 77.921875 57.335938 77.035156 58.238281 75.875 C 59.140625 74.722656 59.710938 73.328125 59.894531 71.871094 C 60.074219 70.40625 59.855469 68.917969 59.257812 67.566406 C 58.664062 66.21875 57.726562 65.066406 56.527344 64.222656 C 55.335938 63.382812 53.933594 62.890625 52.480469 62.800781 C 51.03125 62.707031 49.585938 63.019531 48.300781 63.703125 C 47.003906 64.390625 45.929688 65.421875 45.179688 66.683594 C 44.417969 67.945312 44.023438 69.390625 44.023438 70.863281 C 44.023438 80.4375 52.234375 87.996094 61.988281 87.996094 C 71.898438 87.996094 79.960938 80.308594 79.960938 70.863281 L 97.355469 70.863281 L 97.355469 70.222656 L 92.652344 65.449219 L 92.652344 47.675781 C 98.996094 52.484375 100.621094 57.246094 100.621094 67.582031 C 100.652344 94.960938 60.867188 112.175781 39.484375 92.058594 Z M 39.484375 92.03125 "/>
</g>
</svg>
